STARTFONT 2.1
COMMENT The X10 name for this font was "/usr/theorem/fonts/symfont2.kilter.onx"
FONT /usr/theorem/fonts/symfont2.kilter.onx.bdf
SIZE 11 75 75
FONTBOUNDINGBOX 8 13 0 0
STARTPROPERTIES 2
FONT_DESCENT 3
FONT_ASCENT 10
ENDPROPERTIES
CHARS 128
STARTCHAR C000
ENCODING 0
SWIDTH 1 0
DWIDTH 8 0
BBX 8 13 0 -3
BITMAP
00
00
00
00
00
00
4e
39
00
00
00
00
00
ENDCHAR
STARTCHAR C001
ENCODING 1
SWIDTH 1 0
DWIDTH 8 0
BBX 8 13 0 -3
BITMAP
00
00
3c
02
3e
42
3d
00
00
00
00
00
00
ENDCHAR
STARTCHAR C002
ENCODING 2
SWIDTH 1 0
DWIDTH 8 0
BBX 8 13 0 -3
BITMAP
00
40
40
5e
61
61
5e
00
00
00
00
00
00
ENDCHAR
STARTCHAR C003
ENCODING 3
SWIDTH 1 0
DWIDTH 8 0
BBX 8 13 0 -3
BITMAP
00
00
00
3c
40
40
3c
00
00
00
00
00
00
ENDCHAR
STARTCHAR C004
ENCODING 4
SWIDTH 1 0
DWIDTH 8 0
BBX 8 13 0 -3
BITMAP
00
01
01
3d
43
43
3d
00
00
00
00
00
00
ENDCHAR
STARTCHAR C005
ENCODING 5
SWIDTH 1 0
DWIDTH 8 0
BBX 8 13 0 -3
BITMAP
00
00
3e
41
7f
40
3f
00
00
00
00
00
00
ENDCHAR
STARTCHAR C006
ENCODING 6
SWIDTH 1 0
DWIDTH 8 0
BBX 8 13 0 -3
BITMAP
00
18
24
20
70
20
20
00
00
00
00
00
00
ENDCHAR
STARTCHAR C007
ENCODING 7
SWIDTH 1 0
DWIDTH 8 0
BBX 8 13 0 -3
BITMAP
00
00
00
3e
41
41
3f
01
3e
00
00
00
00
ENDCHAR
STARTCHAR C010
ENCODING 8
SWIDTH 1 0
DWIDTH 8 0
BBX 8 13 0 -3
BITMAP
00
40
40
5e
61
41
41
00
00
00
00
00
00
ENDCHAR
STARTCHAR C011
ENCODING 9
SWIDTH 1 0
DWIDTH 8 0
BBX 8 13 0 -3
BITMAP
00
10
00
30
10
10
38
00
00
00
00
00
00
ENDCHAR
STARTCHAR C012
ENCODING 10
SWIDTH 1 0
DWIDTH 8 0
BBX 8 13 0 -3
BITMAP
00
02
00
02
02
02
02
12
0c
00
00
00
00
ENDCHAR
STARTCHAR C013
ENCODING 11
SWIDTH 1 0
DWIDTH 8 0
BBX 8 13 0 -3
BITMAP
00
40
4c
50
78
64
42
00
00
00
00
00
00
ENDCHAR
STARTCHAR C014
ENCODING 12
SWIDTH 1 0
DWIDTH 8 0
BBX 8 13 0 -3
BITMAP
00
18
08
08
08
08
1c
00
00
00
00
00
00
ENDCHAR
STARTCHAR C015
ENCODING 13
SWIDTH 1 0
DWIDTH 8 0
BBX 8 13 0 -3
BITMAP
00
00
00
56
69
49
49
00
00
00
00
00
00
ENDCHAR
STARTCHAR C016
ENCODING 14
SWIDTH 1 0
DWIDTH 8 0
BBX 8 13 0 -3
BITMAP
00
00
00
5e
61
41
41
00
00
00
00
00
00
ENDCHAR
STARTCHAR C017
ENCODING 15
SWIDTH 1 0
DWIDTH 8 0
BBX 8 13 0 -3
BITMAP
00
00
00
3e
41
41
3e
00
00
00
00
00
00
ENDCHAR
STARTCHAR C020
ENCODING 16
SWIDTH 1 0
DWIDTH 8 0
BBX 8 13 0 -3
BITMAP
00
00
00
7e
41
41
7e
40
40
00
00
00
00
ENDCHAR
STARTCHAR C021
ENCODING 17
SWIDTH 1 0
DWIDTH 8 0
BBX 8 13 0 -3
BITMAP
00
00
00
3f
41
41
3f
01
01
00
00
00
00
ENDCHAR
STARTCHAR C022
ENCODING 18
SWIDTH 1 0
DWIDTH 8 0
BBX 8 13 0 -3
BITMAP
00
00
00
5c
62
40
40
00
00
00
00
00
00
ENDCHAR
STARTCHAR C023
ENCODING 19
SWIDTH 1 0
DWIDTH 8 0
BBX 8 13 0 -3
BITMAP
00
00
3f
40
3e
01
7e
00
00
00
00
00
00
ENDCHAR
STARTCHAR C024
ENCODING 20
SWIDTH 1 0
DWIDTH 8 0
BBX 8 13 0 -3
BITMAP
00
10
38
10
10
14
08
00
00
00
00
00
00
ENDCHAR
STARTCHAR C025
ENCODING 21
SWIDTH 1 0
DWIDTH 8 0
BBX 8 13 0 -3
BITMAP
00
00
00
21
21
23
1d
00
00
00
00
00
00
ENDCHAR
STARTCHAR C026
ENCODING 22
SWIDTH 1 0
DWIDTH 8 0
BBX 8 13 0 -3
BITMAP
00
00
00
41
22
14
08
00
00
00
00
00
00
ENDCHAR
STARTCHAR C027
ENCODING 23
SWIDTH 1 0
DWIDTH 8 0
BBX 8 13 0 -3
BITMAP
00
00
00
41
49
55
22
00
00
00
00
00
00
ENDCHAR
STARTCHAR C030
ENCODING 24
SWIDTH 1 0
DWIDTH 8 0
BBX 8 13 0 -3
BITMAP
00
00
22
14
08
14
22
00
00
00
00
00
00
ENDCHAR
STARTCHAR C031
ENCODING 25
SWIDTH 1 0
DWIDTH 8 0
BBX 8 13 0 -3
BITMAP
00
00
00
41
41
41
3f
02
3c
00
00
00
00
ENDCHAR
STARTCHAR C032
ENCODING 26
SWIDTH 1 0
DWIDTH 8 0
BBX 8 13 0 -3
BITMAP
00
00
3e
04
08
10
3e
00
00
00
00
00
00
ENDCHAR
STARTCHAR C033
ENCODING 27
SWIDTH 1 0
DWIDTH 8 0
BBX 8 13 0 -3
BITMAP
00
00
78
40
40
40
00
00
00
00
00
00
00
ENDCHAR
STARTCHAR C034
ENCODING 28
SWIDTH 1 0
DWIDTH 8 0
BBX 8 13 0 -3
BITMAP
00
00
78
08
08
08
00
00
00
00
00
00
00
ENDCHAR
STARTCHAR C035
ENCODING 29
SWIDTH 1 0
DWIDTH 8 0
BBX 8 13 0 -3
BITMAP
00
00
00
1c
22
41
7f
41
22
1c
00
00
00
ENDCHAR
STARTCHAR C036
ENCODING 30
SWIDTH 1 0
DWIDTH 8 0
BBX 8 13 0 -3
BITMAP
00
00
1c
22
02
01
39
45
42
42
3c
00
00
ENDCHAR
STARTCHAR C037
ENCODING 31
SWIDTH 1 0
DWIDTH 8 0
BBX 8 13 0 -3
BITMAP
00
07
0c
10
3c
52
52
4a
4a
3c
08
30
60
ENDCHAR
STARTCHAR C040
ENCODING 32
SWIDTH 1 0
DWIDTH 8 0
BBX 8 13 0 -3
BITMAP
00
7e
0a
0a
0a
0a
0a
0a
0a
0a
0a
7e
00
ENDCHAR
STARTCHAR !
ENCODING 33
SWIDTH 1 0
DWIDTH 8 0
BBX 8 13 0 -3
BITMAP
00
00
00
08
44
42
7f
42
44
08
00
00
00
ENDCHAR
STARTCHAR "
ENCODING 34
SWIDTH 1 0
DWIDTH 8 0
BBX 8 13 0 -3
BITMAP
00
00
00
08
14
22
41
22
14
08
00
00
00
ENDCHAR
STARTCHAR #
ENCODING 35
SWIDTH 1 0
DWIDTH 8 0
BBX 8 13 0 -3
BITMAP
00
00
00
00
22
41
7f
41
22
00
00
00
00
ENDCHAR
STARTCHAR $
ENCODING 36
SWIDTH 1 0
DWIDTH 8 0
BBX 8 13 0 -3
BITMAP
00
00
00
00
08
00
7f
00
00
00
00
00
00
ENDCHAR
STARTCHAR %
ENCODING 37
SWIDTH 1 0
DWIDTH 8 0
BBX 8 13 0 -3
BITMAP
00
08
08
08
08
08
08
08
08
08
08
08
0f
ENDCHAR
STARTCHAR &
ENCODING 38
SWIDTH 1 0
DWIDTH 8 0
BBX 8 13 0 -3
BITMAP
00
00
00
1c
22
41
49
41
22
1c
00
00
00
ENDCHAR
STARTCHAR '
ENCODING 39
SWIDTH 1 0
DWIDTH 8 0
BBX 8 13 0 -3
BITMAP
00
00
00
08
00
7f
00
7f
00
00
00
00
00
ENDCHAR
STARTCHAR (
ENCODING 40
SWIDTH 1 0
DWIDTH 8 0
BBX 8 13 0 -3
BITMAP
00
06
08
08
08
08
06
00
00
00
00
00
00
ENDCHAR
STARTCHAR )
ENCODING 41
SWIDTH 1 0
DWIDTH 8 0
BBX 8 13 0 -3
BITMAP
00
30
08
08
08
08
30
00
00
00
00
00
00
ENDCHAR
STARTCHAR *
ENCODING 42
SWIDTH 1 0
DWIDTH 8 0
BBX 8 13 0 -3
BITMAP
00
00
00
08
1c
7f
1c
3e
63
00
00
00
00
ENDCHAR
STARTCHAR +
ENCODING 43
SWIDTH 1 0
DWIDTH 8 0
BBX 8 13 0 -3
BITMAP
00
08
08
3e
08
08
00
00
00
00
00
00
00
ENDCHAR
STARTCHAR ,
ENCODING 44
SWIDTH 1 0
DWIDTH 8 0
BBX 8 13 0 -3
BITMAP
00
00
00
00
7f
41
41
41
41
41
41
00
00
ENDCHAR
STARTCHAR -
ENCODING 45
SWIDTH 1 0
DWIDTH 8 0
BBX 8 13 0 -3
BITMAP
00
00
00
00
00
3f
40
40
40
3f
00
00
00
ENDCHAR
STARTCHAR .
ENCODING 46
SWIDTH 1 0
DWIDTH 8 0
BBX 8 13 0 -3
BITMAP
00
00
00
00
41
41
41
41
41
41
7f
00
00
ENDCHAR
STARTCHAR /
ENCODING 47
SWIDTH 1 0
DWIDTH 8 0
BBX 8 13 0 -3
BITMAP
00
00
00
7c
02
01
01
02
7c
00
7f
00
00
ENDCHAR
STARTCHAR 0
ENCODING 48
SWIDTH 1 0
DWIDTH 8 0
BBX 8 13 0 -3
BITMAP
00
00
00
00
00
00
00
00
38
44
44
44
38
ENDCHAR
STARTCHAR 1
ENCODING 49
SWIDTH 1 0
DWIDTH 8 0
BBX 8 13 0 -3
BITMAP
00
00
00
00
00
00
00
00
20
60
20
20
70
ENDCHAR
STARTCHAR 2
ENCODING 50
SWIDTH 1 0
DWIDTH 8 0
BBX 8 13 0 -3
BITMAP
00
00
00
00
00
00
00
00
78
04
38
40
7c
ENDCHAR
STARTCHAR 3
ENCODING 51
SWIDTH 1 0
DWIDTH 8 0
BBX 8 13 0 -3
BITMAP
00
00
00
00
00
00
00
00
78
04
18
04
78
ENDCHAR
STARTCHAR 4
ENCODING 52
SWIDTH 1 0
DWIDTH 8 0
BBX 8 13 0 -3
BITMAP
00
00
00
00
00
00
00
00
08
18
28
7c
08
ENDCHAR
STARTCHAR 5
ENCODING 53
SWIDTH 1 0
DWIDTH 8 0
BBX 8 13 0 -3
BITMAP
00
00
00
00
00
00
00
00
7c
40
78
04
78
ENDCHAR
STARTCHAR 6
ENCODING 54
SWIDTH 1 0
DWIDTH 8 0
BBX 8 13 0 -3
BITMAP
00
00
00
00
00
00
00
00
38
40
78
44
38
ENDCHAR
STARTCHAR 7
ENCODING 55
SWIDTH 1 0
DWIDTH 8 0
BBX 8 13 0 -3
BITMAP
00
00
00
00
00
00
00
00
7c
04
08
10
20
ENDCHAR
STARTCHAR 8
ENCODING 56
SWIDTH 1 0
DWIDTH 8 0
BBX 8 13 0 -3
BITMAP
00
00
00
00
00
00
00
00
38
44
38
44
38
ENDCHAR
STARTCHAR 9
ENCODING 57
SWIDTH 1 0
DWIDTH 8 0
BBX 8 13 0 -3
BITMAP
00
00
00
00
00
00
00
00
38
44
3c
04
78
ENDCHAR
STARTCHAR :
ENCODING 58
SWIDTH 1 0
DWIDTH 8 0
BBX 8 13 0 -3
BITMAP
00
00
00
7f
41
41
41
41
41
7f
00
00
00
ENDCHAR
STARTCHAR ;
ENCODING 59
SWIDTH 1 0
DWIDTH 8 0
BBX 8 13 0 -3
BITMAP
00
00
00
00
39
4e
00
7f
00
00
00
00
00
ENDCHAR
STARTCHAR <
ENCODING 60
SWIDTH 1 0
DWIDTH 8 0
BBX 8 13 0 -3
BITMAP
00
00
00
00
1f
03
05
09
11
20
40
00
00
ENDCHAR
STARTCHAR =
ENCODING 61
SWIDTH 1 0
DWIDTH 8 0
BBX 8 13 0 -3
BITMAP
00
00
01
02
04
7f
08
7f
10
20
40
00
00
ENDCHAR
STARTCHAR >
ENCODING 62
SWIDTH 1 0
DWIDTH 8 0
BBX 8 13 0 -3
BITMAP
00
00
00
00
40
20
11
09
05
03
1f
00
00
ENDCHAR
STARTCHAR ?
ENCODING 63
SWIDTH 1 0
DWIDTH 8 0
BBX 8 13 0 -3
BITMAP
00
00
60
18
04
03
04
18
60
00
7f
00
00
ENDCHAR
STARTCHAR @
ENCODING 64
SWIDTH 1 0
DWIDTH 8 0
BBX 8 13 0 -3
BITMAP
00
00
00
08
10
3f
40
3f
10
08
00
00
00
ENDCHAR
STARTCHAR A
ENCODING 65
SWIDTH 1 0
DWIDTH 8 0
BBX 8 13 0 -3
BITMAP
00
00
41
22
32
2a
2a
4a
46
42
41
00
00
ENDCHAR
STARTCHAR B
ENCODING 66
SWIDTH 1 0
DWIDTH 8 0
BBX 8 13 0 -3
BITMAP
00
00
00
00
7f
08
08
08
08
08
08
00
00
ENDCHAR
STARTCHAR C
ENCODING 67
SWIDTH 1 0
DWIDTH 8 0
BBX 8 13 0 -3
BITMAP
00
00
7f
00
00
14
1c
14
00
00
7f
00
00
ENDCHAR
STARTCHAR D
ENCODING 68
SWIDTH 1 0
DWIDTH 8 0
BBX 8 13 0 -3
BITMAP
00
00
08
14
14
22
22
22
41
41
7f
00
00
ENDCHAR
STARTCHAR E
ENCODING 69
SWIDTH 1 0
DWIDTH 8 0
BBX 8 13 0 -3
BITMAP
00
00
00
01
0f
12
24
3e
28
10
2f
40
00
ENDCHAR
STARTCHAR F
ENCODING 70
SWIDTH 1 0
DWIDTH 8 0
BBX 8 13 0 -3
BITMAP
00
00
1c
08
3e
6b
49
6b
3e
08
1c
00
00
ENDCHAR
STARTCHAR G
ENCODING 71
SWIDTH 1 0
DWIDTH 8 0
BBX 8 13 0 -3
BITMAP
00
00
1f
11
11
10
10
10
10
10
38
00
00
ENDCHAR
STARTCHAR H
ENCODING 72
SWIDTH 1 0
DWIDTH 8 0
BBX 8 13 0 -3
BITMAP
00
00
7f
41
41
22
22
22
14
14
08
00
00
ENDCHAR
STARTCHAR I
ENCODING 73
SWIDTH 1 0
DWIDTH 8 0
BBX 8 13 0 -3
BITMAP
00
00
00
00
00
36
49
36
00
00
00
00
00
ENDCHAR
STARTCHAR J
ENCODING 74
SWIDTH 1 0
DWIDTH 8 0
BBX 8 13 0 -3
BITMAP
00
1e
10
10
10
10
10
10
10
10
10
10
10
ENDCHAR
STARTCHAR K
ENCODING 75
SWIDTH 1 0
DWIDTH 8 0
BBX 8 13 0 -3
BITMAP
00
78
08
08
08
08
08
08
08
08
08
08
08
ENDCHAR
STARTCHAR L
ENCODING 76
SWIDTH 1 0
DWIDTH 8 0
BBX 8 13 0 -3
BITMAP
00
00
08
14
14
22
22
22
41
41
63
00
00
ENDCHAR
STARTCHAR M
ENCODING 77
SWIDTH 1 0
DWIDTH 8 0
BBX 8 13 0 -3
BITMAP
00
00
00
00
00
1f
11
22
22
44
7c
00
00
ENDCHAR
STARTCHAR N
ENCODING 78
SWIDTH 1 0
DWIDTH 8 0
BBX 8 13 0 -3
BITMAP
00
00
00
00
01
02
04
08
10
20
7f
00
00
ENDCHAR
STARTCHAR O
ENCODING 79
SWIDTH 1 0
DWIDTH 8 0
BBX 8 13 0 -3
BITMAP
00
00
00
22
22
22
22
22
22
22
7f
00
00
ENDCHAR
STARTCHAR P
ENCODING 80
SWIDTH 1 0
DWIDTH 8 0
BBX 8 13 0 -3
BITMAP
00
00
7f
22
22
22
22
22
22
22
22
00
00
ENDCHAR
STARTCHAR Q
ENCODING 81
SWIDTH 1 0
DWIDTH 8 0
BBX 8 13 0 -3
BITMAP
00
00
1c
36
41
55
7f
55
41
36
1c
00
00
ENDCHAR
STARTCHAR R
ENCODING 82
SWIDTH 1 0
DWIDTH 8 0
BBX 8 13 0 -3
BITMAP
00
00
00
00
7c
60
50
48
44
02
01
00
00
ENDCHAR
STARTCHAR S
ENCODING 83
SWIDTH 1 0
DWIDTH 8 0
BBX 8 13 0 -3
BITMAP
00
00
7f
41
20
10
08
10
20
41
7f
00
00
ENDCHAR
STARTCHAR T
ENCODING 84
SWIDTH 1 0
DWIDTH 8 0
BBX 8 13 0 -3
BITMAP
00
00
00
00
01
02
44
48
50
60
7c
00
00
ENDCHAR
STARTCHAR U
ENCODING 85
SWIDTH 1 0
DWIDTH 8 0
BBX 8 13 0 -3
BITMAP
00
00
22
55
55
14
08
08
08
08
1c
00
00
ENDCHAR
STARTCHAR V
ENCODING 86
SWIDTH 1 0
DWIDTH 8 0
BBX 8 13 0 -3
BITMAP
00
00
00
01
01
01
7f
01
01
01
00
00
00
ENDCHAR
STARTCHAR W
ENCODING 87
SWIDTH 1 0
DWIDTH 8 0
BBX 8 13 0 -3
BITMAP
00
00
00
1c
22
41
41
41
41
22
22
63
00
ENDCHAR
STARTCHAR X
ENCODING 88
SWIDTH 1 0
DWIDTH 8 0
BBX 8 13 0 -3
BITMAP
00
00
00
00
08
08
08
08
08
08
7f
00
00
ENDCHAR
STARTCHAR Y
ENCODING 89
SWIDTH 1 0
DWIDTH 8 0
BBX 8 13 0 -3
BITMAP
00
00
1c
49
2a
2a
2a
1c
08
08
1c
00
00
ENDCHAR
STARTCHAR Z
ENCODING 90
SWIDTH 1 0
DWIDTH 8 0
BBX 8 13 0 -3
BITMAP
00
08
49
2a
14
2a
49
08
00
00
00
00
00
ENDCHAR
STARTCHAR [
ENCODING 91
SWIDTH 1 0
DWIDTH 8 0
BBX 8 13 0 -3
BITMAP
00
00
00
00
08
1c
2a
49
08
08
08
00
00
ENDCHAR
STARTCHAR \
ENCODING 92
SWIDTH 1 0
DWIDTH 8 0
BBX 8 13 0 -3
BITMAP
00
00
00
00
08
08
08
49
2a
1c
08
00
00
ENDCHAR
STARTCHAR ]
ENCODING 93
SWIDTH 1 0
DWIDTH 8 0
BBX 8 13 0 -3
BITMAP
00
00
00
39
4e
00
7f
00
7f
00
00
00
00
ENDCHAR
STARTCHAR ^
ENCODING 94
SWIDTH 1 0
DWIDTH 8 0
BBX 8 13 0 -3
BITMAP
00
08
08
08
08
08
08
08
08
08
08
08
78
ENDCHAR
STARTCHAR _
ENCODING 95
SWIDTH 1 0
DWIDTH 8 0
BBX 8 13 0 -3
BITMAP
00
00
3e
00
00
00
00
00
00
00
00
00
00
ENDCHAR
STARTCHAR `
ENCODING 96
SWIDTH 1 0
DWIDTH 8 0
BBX 8 13 0 -3
BITMAP
00
00
00
00
39
46
00
39
46
00
00
00
00
ENDCHAR
STARTCHAR a
ENCODING 97
SWIDTH 1 0
DWIDTH 8 0
BBX 8 13 0 -3
BITMAP
00
00
00
00
00
00
31
4a
4a
44
4a
31
00
ENDCHAR
STARTCHAR b
ENCODING 98
SWIDTH 1 0
DWIDTH 8 0
BBX 8 13 0 -3
BITMAP
00
00
1c
22
21
22
7c
42
42
42
7c
40
00
ENDCHAR
STARTCHAR c
ENCODING 99
SWIDTH 1 0
DWIDTH 8 0
BBX 8 13 0 -3
BITMAP
00
00
40
30
40
40
30
40
40
60
10
60
00
ENDCHAR
STARTCHAR d
ENCODING 100
SWIDTH 1 0
DWIDTH 8 0
BBX 8 13 0 -3
BITMAP
00
00
0e
11
10
08
1e
21
41
41
3e
00
00
ENDCHAR
STARTCHAR e
ENCODING 101
SWIDTH 1 0
DWIDTH 8 0
BBX 8 13 0 -3
BITMAP
00
00
00
00
38
44
40
30
40
44
38
00
00
ENDCHAR
STARTCHAR f
ENCODING 102
SWIDTH 1 0
DWIDTH 8 0
BBX 8 13 0 -3
BITMAP
00
00
00
00
00
2e
49
49
49
49
3e
08
08
ENDCHAR
STARTCHAR g
ENCODING 103
SWIDTH 1 0
DWIDTH 8 0
BBX 8 13 0 -3
BITMAP
00
00
00
00
00
01
32
4a
04
04
04
04
00
ENDCHAR
STARTCHAR h
ENCODING 104
SWIDTH 1 0
DWIDTH 8 0
BBX 8 13 0 -3
BITMAP
00
00
00
00
00
6c
32
22
44
44
44
08
08
ENDCHAR
STARTCHAR i
ENCODING 105
SWIDTH 1 0
DWIDTH 8 0
BBX 8 13 0 -3
BITMAP
00
00
00
00
00
10
10
20
20
28
10
00
00
ENDCHAR
STARTCHAR j
ENCODING 106
SWIDTH 1 0
DWIDTH 8 0
BBX 8 13 0 -3
BITMAP
00
00
00
01
02
3e
45
49
49
51
3e
20
40
ENDCHAR
STARTCHAR k
ENCODING 107
SWIDTH 1 0
DWIDTH 8 0
BBX 8 13 0 -3
BITMAP
00
00
00
00
00
24
28
30
28
24
42
00
00
ENDCHAR
STARTCHAR l
ENCODING 108
SWIDTH 1 0
DWIDTH 8 0
BBX 8 13 0 -3
BITMAP
00
00
20
50
08
08
0c
14
22
22
41
00
00
ENDCHAR
STARTCHAR m
ENCODING 109
SWIDTH 1 0
DWIDTH 8 0
BBX 8 13 0 -3
BITMAP
00
00
00
00
00
24
24
24
24
24
5a
40
40
ENDCHAR
STARTCHAR n
ENCODING 110
SWIDTH 1 0
DWIDTH 8 0
BBX 8 13 0 -3
BITMAP
00
00
00
00
00
64
24
24
28
30
40
00
00
ENDCHAR
STARTCHAR o
ENCODING 111
SWIDTH 1 0
DWIDTH 8 0
BBX 8 13 0 -3
BITMAP
00
00
00
00
00
1e
21
41
41
42
3c
00
00
ENDCHAR
STARTCHAR p
ENCODING 112
SWIDTH 1 0
DWIDTH 8 0
BBX 8 13 0 -3
BITMAP
00
00
00
00
00
57
2c
24
24
24
24
00
00
ENDCHAR
STARTCHAR q
ENCODING 113
SWIDTH 1 0
DWIDTH 8 0
BBX 8 13 0 -3
BITMAP
00
00
1c
22
22
42
7e
42
44
44
38
00
00
ENDCHAR
STARTCHAR r
ENCODING 114
SWIDTH 1 0
DWIDTH 8 0
BBX 8 13 0 -3
BITMAP
00
00
00
00
00
00
0e
11
11
21
3e
40
40
ENDCHAR
STARTCHAR s
ENCODING 115
SWIDTH 1 0
DWIDTH 8 0
BBX 8 13 0 -3
BITMAP
00
00
00
00
00
3f
48
44
44
44
38
00
00
ENDCHAR
STARTCHAR t
ENCODING 116
SWIDTH 1 0
DWIDTH 8 0
BBX 8 13 0 -3
BITMAP
00
00
00
00
00
3f
48
08
08
10
10
00
00
ENDCHAR
STARTCHAR u
ENCODING 117
SWIDTH 1 0
DWIDTH 8 0
BBX 8 13 0 -3
BITMAP
00
00
00
00
00
21
11
21
21
22
1c
00
00
ENDCHAR
STARTCHAR v
ENCODING 118
SWIDTH 1 0
DWIDTH 8 0
BBX 8 13 0 -3
BITMAP
00
00
00
00
0e
10
20
38
20
10
0e
00
00
ENDCHAR
STARTCHAR w
ENCODING 119
SWIDTH 1 0
DWIDTH 8 0
BBX 8 13 0 -3
BITMAP
00
00
00
00
00
22
41
49
49
49
36
00
00
ENDCHAR
STARTCHAR x
ENCODING 120
SWIDTH 1 0
DWIDTH 8 0
BBX 8 13 0 -3
BITMAP
00
00
00
00
00
61
12
0c
18
24
24
43
00
ENDCHAR
STARTCHAR y
ENCODING 121
SWIDTH 1 0
DWIDTH 8 0
BBX 8 13 0 -3
BITMAP
00
00
00
00
04
04
49
49
4a
3c
10
20
00
ENDCHAR
STARTCHAR z
ENCODING 122
SWIDTH 1 0
DWIDTH 8 0
BBX 8 13 0 -3
BITMAP
00
00
40
38
20
40
40
40
20
10
50
20
00
ENDCHAR
STARTCHAR {
ENCODING 123
SWIDTH 1 0
DWIDTH 8 0
BBX 8 13 0 -3
BITMAP
00
00
01
41
42
42
7f
44
44
48
08
00
00
ENDCHAR
STARTCHAR |
ENCODING 124
SWIDTH 1 0
DWIDTH 8 0
BBX 8 13 0 -3
BITMAP
00
00
08
14
22
7f
00
7f
00
7f
00
00
00
ENDCHAR
STARTCHAR }
ENCODING 125
SWIDTH 1 0
DWIDTH 8 0
BBX 8 13 0 -3
BITMAP
00
00
42
42
44
7f
44
7f
44
48
48
00
00
ENDCHAR
STARTCHAR ~
ENCODING 126
SWIDTH 1 0
DWIDTH 8 0
BBX 8 13 0 -3
BITMAP
00
00
01
02
7f
04
7f
10
7f
20
40
00
00
ENDCHAR
STARTCHAR C177
ENCODING 127
SWIDTH 1 0
DWIDTH 8 0
BBX 8 13 0 -3
BITMAP
00
08
08
08
08
08
08
08
08
08
08
08
08
ENDCHAR
ENDFONT
